HIERARCHY
ROOT Hips
{
    OFFSET 0.000000 0.000000 0.000000
    CHANNELS 6 Xposition Yposition Zposition Zrotation Xrotation Yrotation
    JOINT Ab
    {
        OFFSET -0.000000 8.084561 -0.000000
        CHANNELS 3 Zrotation Xrotation Yrotation
        JOINT Chest
        {
            OFFSET -0.000000 25.006802 -0.000000
            CHANNELS 3 Zrotation Xrotation Yrotation
            JOINT Neck
            {
                OFFSET -0.000000 25.006802 0.000000
                CHANNELS 3 Zrotation Xrotation Yrotation
                JOINT Head
                {
                    OFFSET -0.000000 10.755555 0.000000
                    CHANNELS 3 Zrotation Xrotation Yrotation
                    End Site
                    {
                        OFFSET -0.000000 16.622223 0.000000
                    }
                }
            }
            JOINT LeftCollar
            {
                OFFSET -0.000000 25.006802 0.000000
                CHANNELS 3 Zrotation Xrotation Yrotation
                JOINT LeftShoulder
                {
                    OFFSET 19.555553 -0.000000 0.000000
                    CHANNELS 3 Zrotation Xrotation Yrotation
                    JOINT LeftElbow
                    {
                        OFFSET 27.182800 0.000000 0.000000
                        CHANNELS 3 Zrotation Xrotation Yrotation
                        JOINT LeftWrist
                        {
                            OFFSET 23.315706 0.000000 0.000000
                            CHANNELS 3 Zrotation Xrotation Yrotation
                            End Site
                            {
                                OFFSET 0.000000 -14.666668 0.000000
                            }
                        }
                    }
                }
            }
            JOINT RightCollar
            {
                OFFSET -0.000000 25.006802 0.000000
                CHANNELS 3 Zrotation Xrotation Yrotation
                JOINT RightShoulder
                {
                    OFFSET -19.555553 0.000000 0.000000
                    CHANNELS 3 Zrotation Xrotation Yrotation
                    JOINT RightElbow
                    {
                        OFFSET -27.182800 0.000000 0.000000
                        CHANNELS 3 Zrotation Xrotation Yrotation
                        JOINT RightWrist
                        {
                            OFFSET -23.315706 0.000000 0.000000
                            CHANNELS 3 Zrotation Xrotation Yrotation
                            End Site
                            {
                                OFFSET -0.000000 -14.666668 0.000000
                            }
                        }
                    }
                }
            }
        }
    }
    JOINT LeftHip
    {
        OFFSET 11.733333 0.000000 0.000000
        CHANNELS 3 Zrotation Xrotation Yrotation
        JOINT LeftKnee
        {
            OFFSET -0.000000 -40.868771 0.000000
            CHANNELS 3 Zrotation Xrotation Yrotation
            JOINT LeftAnkle
            {
                OFFSET -0.000000 -44.433651 0.000000
                CHANNELS 3 Zrotation Xrotation Yrotation
                End Site
                {
                    OFFSET -0.000000 -4.888888 16.622223
                }
            }
        }
    }
    JOINT RightHip
    {
        OFFSET -11.733333 0.000000 0.000000
        CHANNELS 3 Zrotation Xrotation Yrotation
        JOINT RightKnee
        {
            OFFSET -0.000000 -40.868771 0.000000
            CHANNELS 3 Zrotation Xrotation Yrotation
            JOINT RightAnkle
            {
                OFFSET -0.000000 -44.433651 0.000000
                CHANNELS 3 Zrotation Xrotation Yrotation
                End Site
                {
                    OFFSET -0.000000 -4.888888 16.622223
                }
            }
        }
    }
}
MOTION
Frames:    16
Frame Time:    0.010000
2.82926600 84.25718700 -34.76740300 2.90467700 -0.37547200 170.63224800 4.52749500 3.91414400 2.65242200 -6.79861500 10.59756400 3.43766800 3.99772500 -26.10349500 1.86214900 0.56334700 2.68464000 0.91801200 -20.15057200 -2.22863000 12.63111100 -63.91332200 12.76523400 11.75930600 6.78392200 -2.14656700 -35.66731300 77.78693400 4.85495300 -38.59807200 21.66231000 -0.38371800 -2.13071300 21.76317800 42.16320800 49.18317400 -32.45433800 -10.99658200 36.51369500 -86.59486400 -9.48115800 10.62779000 6.87176700 -28.21427500 -3.10768700 -2.10063600 9.35722400 6.94553600 -9.72875500 -8.93320900 20.92473400 4.36274000 3.98758200 -1.54932200 -0.88521500 27.74847400 15.50531400 -3.67626700 -25.21943900 -21.12688600 
2.73987200 84.08989000 -36.08898500 2.85409100 -0.40388700 170.44812000 4.35351500 3.73307100 2.79191500 -6.85349900 10.67642000 3.57454700 3.88683200 -26.08533700 1.74975800 0.81003100 2.68311300 0.81916800 -20.07498400 -2.26128300 12.76253600 -64.06745900 12.98398200 11.95737600 6.99730000 -2.25066100 -35.57325400 77.66790000 4.60478900 -38.24428200 21.73868900 -0.38647300 -2.00099800 22.05665000 41.80403900 48.73333000 -32.40152000 -10.99294300 36.64235700 -86.64200600 -9.40984800 10.85170400 6.87563500 -28.70541600 -3.03138600 -2.69748600 11.07611300 6.46808400 -8.89737200 -9.69532600 21.09067500 4.16090100 4.23632900 -1.49891800 -1.22406500 28.80963300 16.03084800 -3.27692000 -25.31250600 -21.10606000 
2.73987200 84.08989000 -36.08898500 2.85409500 -0.40388300 170.44812000 4.35352200 3.73307200 2.79164800 -6.84490700 10.66682400 3.57301700 3.87721800 -26.03631200 1.68348400 0.78057300 2.64965200 0.76117700 -20.07593200 -2.22094200 12.62805500 -64.04129000 12.94725200 12.00884400 6.92161800 -2.22098000 -35.47109200 77.73030100 4.56589600 -38.31274800 21.75665500 -0.41511000 -2.09809900 22.07041400 41.79980900 48.71058700 -32.46195200 -10.99435600 36.61774400 -86.58544200 -9.45032100 10.84558900 6.87563100 -28.70540800 -3.03138300 -2.69747100 11.07608400 6.46808000 -8.89734500 -9.69531900 21.09068100 4.16090400 4.23633000 -1.49892900 -1.22406800 28.80964700 16.03084900 -3.27692000 -25.31251500 -21.10604700 
2.60386500 83.93193800 -37.46809000 2.74737300 -0.36836200 170.17279100 4.09239000 3.60019400 3.01977200 -6.86617100 10.68880100 3.79277100 3.85803800 -26.06141100 1.69737800 0.99087200 2.76290900 0.78023200 -20.10668000 -2.27324900 12.87899000 -64.07888800 12.71090800 12.20709500 6.89378800 -2.24322700 -35.57988400 78.20453600 4.49490800 -37.95622300 21.76660000 -0.38747400 -2.02037300 21.91398200 41.90719600 48.65004300 -32.48389100 -10.98570300 36.53264600 -86.84491000 -9.34185800 10.59342600 6.77666600 -28.97497200 -2.83598400 -3.29452800 12.82871000 6.21615500 -8.15018200 -10.42039100 21.20753500 3.80913500 4.52473700 -1.25442000 -1.47748000 29.98494900 17.03777900 -2.69686100 -25.39838400 -21.58042000 
2.47219100 83.78610200 -38.85990900 2.66024100 -0.35443400 169.84971600 4.04850400 3.43017400 3.10576100 -7.25269700 10.73407700 3.90996000 4.10521000 -26.08894000 1.79113300 0.98366500 2.82936500 0.81070400 -19.90873100 -2.27741000 13.06599000 -64.19625100 12.73349400 12.29115300 7.08743100 -2.30844400 -35.46694900 78.23143000 4.38467100 -37.51676600 21.93926000 -0.35372000 -1.84997500 22.49745900 41.64471800 47.96654100 -32.18400600 -10.87128400 36.75447500 -87.00315100 -9.17559700 10.80402200 6.71531200 -29.10806500 -2.34295900 -3.78943000 14.62078600 5.49954800 -7.67147900 -10.79917000 21.40528700 3.50729800 4.69794800 -1.11893400 -1.84656300 31.22173500 17.25734700 -2.21148000 -25.19821500 -21.03490300 
2.14526200 83.54949200 -41.76414500 2.37789500 -0.26393300 169.08616600 3.36040100 3.16669600 3.59584700 -7.21055100 10.51805400 4.35336100 4.25874200 -26.01463100 1.88709400 1.15401100 3.15693500 0.87482000 -20.00656100 -2.36486200 13.59593100 -64.27780200 12.77987200 12.52712200 7.71828100 -2.59193700 -35.35741000 77.39482100 4.58962500 -36.66939500 21.92509300 -0.37305100 -1.88656100 22.68151300 42.31907700 47.44564100 -32.15934400 -10.90840000 36.53554200 -87.01119200 -8.96867400 10.88428800 6.25879400 -28.73716200 -1.00135500 -4.15936200 17.39185100 3.26658500 -4.69191500 -8.17202700 22.79437800 2.70878300 4.87307600 -0.74756500 -2.61145000 34.15144700 18.09218600 -1.59342300 -24.41426100 -20.98870700 
1.94997000 83.47867600 -43.23711000 2.12865600 -0.12655400 168.64521800 3.03256700 2.98787000 3.75610500 -7.32758300 10.62653500 4.51719400 4.19687500 -25.95349100 1.72993700 1.26403700 3.18323000 0.70898700 -19.99610100 -2.39759200 13.35115100 -64.28024300 12.44224500 12.73476200 7.83549600 -2.57494500 -35.28575500 77.64784200 4.58466100 -36.20487600 22.00134300 -0.39549200 -2.09025100 23.26021200 42.25083900 46.77621100 -31.85796200 -10.76243800 36.67925600 -86.72590600 -8.95206600 11.22699200 5.77791600 -28.31984500 -0.91295200 -4.09476900 18.31323200 2.86053700 -5.57346700 -6.52823000 23.97447600 2.27155500 4.73434300 -0.81206900 -3.58541200 36.05259700 18.95661200 -0.12870500 -24.08188800 -20.35784000 
1.94997000 83.47867600 -43.23711000 2.12865400 -0.12654100 168.64520300 3.03256000 2.98789300 3.75579900 -7.31996400 10.61900400 4.51615000 4.19246200 -25.90523700 1.65998200 1.25447200 3.15277900 0.64838700 -19.99326700 -2.36172000 13.20397200 -64.25611900 12.41577700 12.78965200 7.80913700 -2.50789300 -35.20541800 77.68892700 4.54288300 -36.20594000 22.02138300 -0.43053100 -2.20019900 23.28074800 42.24553700 46.74552200 -31.86134100 -10.79979400 36.67218000 -86.69004100 -8.96942000 11.26905500 5.77791700 -28.31984100 -0.91293000 -4.09475900 18.31324000 2.86050700 -5.57344000 -6.52825100 23.97445700 2.27154800 4.73434700 -0.81207600 -3.58542100 36.05260800 18.95661900 -0.12870700 -24.08189400 -20.35783800 
1.75349800 83.44778400 -44.66352500 1.80657200 0.01593300 168.30551100 2.38673400 2.97723500 3.95381000 -7.13889600 10.53379500 4.67455400 4.25590000 -25.99897400 1.68885200 1.30443000 3.28074200 0.66661700 -20.21469700 -2.37839100 13.18269100 -64.06668100 11.65518400 12.84709000 7.68533900 -2.44470700 -35.29450200 77.93035100 4.60140000 -36.21654900 22.04063400 -0.45929500 -2.35487900 23.58328400 42.47985800 46.37144100 -31.60586200 -10.68252800 36.71387500 -86.66398600 -8.75825600 11.62502100 5.24917200 -28.08707400 -1.42336800 -4.12370900 19.41222000 3.46768100 -6.42539000 -6.24757100 23.83997700 1.83108700 4.34394400 -0.80172600 -4.33460700 38.17912700 18.25851600 1.69805700 -23.25367000 -18.80958400 
1.35304500 83.52514600 -47.38474700 1.12891500 0.32090300 167.89440900 1.31342500 3.27129000 4.09108400 -7.13702600 10.06168300 4.75724200 4.15582600 -26.20159700 1.56184900 1.82162100 3.42877200 0.52711800 -20.66081400 -2.38300200 12.57961300 -63.64817400 10.72882700 12.88887600 7.95805400 -2.55968700 -34.89183400 78.45351400 4.16198600 -35.57491700 22.37316100 -0.51327100 -2.59585100 25.28411900 42.83210400 44.45436100 -31.12117200 -10.47681300 36.80483200 -86.49662000 -8.81244800 12.50290700 4.74540200 -27.80241800 -3.09755500 -6.18980800 22.16056100 4.46175500 -6.25683700 -5.49661700 23.87327000 0.89882300 2.86930100 0.15795000 -4.94542800 43.53116200 16.62605700 3.93751000 -20.23138400 -17.25988600 
1.35304400 83.52514600 -47.38474700 1.12890100 0.32092300 167.89442400 1.31340300 3.27131700 4.09099100 -7.13245200 10.05986500 4.75693400 4.14876900 -26.18113900 1.52144200 1.82423700 3.41596100 0.49507000 -20.66566300 -2.33444000 12.49982600 -63.64535900 10.72585600 12.87014100 8.01117900 -2.54848600 -34.94475600 78.45186600 4.18199300 -35.49696000 22.38234500 -0.53349600 -2.65878900 25.30137800 42.82546600 44.42797900 -31.05166400 -10.51125700 36.82572900 -86.46707900 -8.82888800 12.59255000 4.74536400 -27.80238900 -3.09756900 -6.18979500 22.16054900 4.46173500 -6.25684300 -5.49661800 23.87326400 0.89881300 2.86931600 0.15791000 -4.94544700 43.53112400 16.62605500 3.93753100 -20.23131600 -17.25985900 
1.19336200 83.62001000 -48.69089500 0.81303800 0.46615600 167.98449700 0.82663400 3.52575200 4.00806800 -7.17537900 9.70894100 4.64401300 4.08522700 -26.14293100 1.40977400 2.12780900 3.30806200 0.38030800 -20.76762200 -2.27063100 11.94295300 -63.40244300 10.00435900 12.88261900 8.08140800 -2.54915700 -34.80293700 78.62564800 4.06039700 -35.00142700 22.41051300 -0.50678200 -2.59235600 27.31402800 43.00331100 42.37412300 -30.92625800 -10.51756400 37.04107300 -86.26856200 -9.20352100 13.28612100 4.42919900 -27.73112700 -2.80611500 -6.85572900 23.65620600 3.41792200 -6.24061300 -5.29550700 24.20177700 0.46838600 1.85779400 0.70988900 -4.62278300 46.51174900 14.33348600 4.72688900 -17.95892100 -15.57175800 
0.86149300 83.83396100 -51.25786600 0.39069900 0.79098400 168.47456400 0.27095200 3.90113700 3.67143000 -7.24849200 9.39458300 4.27793000 3.63041900 -26.06657800 1.10354400 2.68495000 3.20720000 0.17970800 -20.92029000 -2.13977200 10.68911500 -63.14976100 9.57401800 12.49814800 8.68162300 -2.80622600 -34.27987300 78.46223400 4.27008100 -34.48877000 22.46883600 -0.55388000 -2.93027300 29.97111100 43.32047700 39.65935100 -30.24958800 -10.26035900 37.40583000 -86.44725800 -8.50426100 14.00266000 3.75843800 -27.01461600 -2.50891500 -7.79845600 25.55601300 3.23483500 -6.15126400 -4.78559600 24.02914800 -0.34233100 -0.31948800 1.43762200 -2.90758900 52.46101800 7.01974300 4.69856800 -11.93505100 -12.14309200 
0.86148400 83.83396900 -51.25787400 0.39062500 0.79092300 168.47456400 0.27090200 3.90101800 3.67143300 -7.27403900 9.39619200 4.27901300 3.69120000 -26.15358500 1.30019400 2.86973400 3.29607200 0.38401800 -20.95180700 -2.08539200 11.06341600 -63.16457000 9.54269400 12.24869900 8.78352400 -2.77992300 -34.39435200 78.46432500 4.31584500 -34.32217000 22.42885000 -0.52393000 -2.62751700 29.98159200 43.39793000 39.64088800 -30.07187700 -10.28603100 37.46019400 -86.43320500 -8.51809200 14.16052300 3.75835800 -27.01467100 -2.50895000 -7.79843400 25.55598100 3.23489500 -6.15126800 -4.78558300 24.02911800 -0.34240900 -0.31956900 1.43761200 -2.90759000 52.46101400 7.01977300 4.69854900 -11.93504900 -12.14309200 
0.46491700 84.05783100 -53.73247900 0.06478200 0.96759200 168.82727100 0.10141000 4.08513200 3.30913700 -7.64496700 9.20193900 3.93081700 3.70607500 -25.81127400 1.17662500 2.85928400 3.09539800 0.21925300 -20.96402500 -1.96041700 9.91932400 -62.71579000 10.08443500 11.26322900 9.36363600 -2.98970300 -33.71797200 78.53406500 4.72023000 -33.30044900 22.48725500 -0.57925000 -3.08834100 32.46826900 43.63031800 37.19708300 -28.87917100 -9.73038400 37.52906800 -86.97774500 -8.17481700 14.61070600 3.03790400 -25.97173700 -1.61627400 -8.15098200 26.71551300 2.86494100 -4.98052600 -4.75294200 23.52334000 -1.24240600 -3.01449100 1.64474400 -0.95170900 58.43304400 0.92571700 3.65174300 -5.62847300 -9.93442400 
0.46491600 84.05783100 -53.73247900 0.06479200 0.96758200 168.82727100 0.10143000 4.08512000 3.30949000 -7.67177300 9.20243200 3.93150800 3.77331200 -25.90282800 1.36451200 3.04393300 3.18987000 0.43640500 -20.98741900 -1.92978100 10.29878400 -62.72915600 10.06313100 11.03292800 9.46607400 -2.95437900 -33.82080500 78.54253400 4.76254600 -33.12889500 22.44813700 -0.54293400 -2.78568400 32.48229600 43.70027500 37.17509500 -28.65442500 -9.77472300 37.58851200 -86.94703700 -8.20200300 14.82679300 3.03788900 -25.97173300 -1.61632200 -8.15097900 26.71550200 2.86497000 -4.98057400 -4.75291700 23.52335500 -1.24237900 -3.01447700 1.64470600 -0.95177900 58.43299100 0.92575500 3.65176800 -5.62840700 -9.93442600 
